<svg width="100%" height="100%" id="svg" viewBox="0 0 1440 590" xmlns="http://www.w3.org/2000/svg" class="transition duration-300 ease-in-out delay-150"><defs><linearGradient id="gradient" x1="0%" y1="50%" x2="100%" y2="50%"><stop offset="5%" stop-color="#8ed1fc"></stop><stop offset="95%" stop-color="#1b1799"></stop></linearGradient></defs><path d="M 0,600 C 0,600 0,200 0,200 C 87.78947368421055,247.64593301435406 175.5789473684211,295.2918660287081 261,267 C 346.4210526315789,238.70813397129186 429.47368421052624,134.47846889952154 527,131 C 624.5263157894738,127.52153110047847 736.5263157894735,224.7942583732057 833,250 C 929.4736842105265,275.2057416267943 1010.421052631579,228.3444976076555 1109,208 C 1207.578947368421,187.6555023923445 1323.7894736842104,193.82775119617224 1440,200 C 1440,200 1440,600 1440,600 Z" stroke="none" stroke-width="0" fill="url(#gradient)" fill-opacity="0.53" class="transition-all duration-300 ease-in-out delay-150 path-0"></path><defs><linearGradient id="gradient" x1="0%" y1="50%" x2="100%" y2="50%"><stop offset="5%" stop-color="#8ed1fc"></stop><stop offset="95%" stop-color="#1b1799"></stop></linearGradient></defs><path d="M 0,600 C 0,600 0,400 0,400 C 71.82775119617227,368.5645933014354 143.65550239234454,337.12918660287085 236,359 C 328.34449760765546,380.87081339712915 441.2057416267942,456.04784688995215 544,454 C 646.7942583732058,451.95215311004785 739.5215311004783,372.6794258373206 847,344 C 954.4784688995217,315.3205741626794 1076.708133971292,337.23444976076553 1178,355 C 1279.291866028708,372.76555023923447 1359.645933014354,386.38277511961724 1440,400 C 1440,400 1440,600 1440,600 Z" stroke="none" stroke-width="0" fill="url(#gradient)" fill-opacity="1" class="transition-all duration-300 ease-in-out delay-150 path-1"></path></svg>