<svg width="297" height="307" viewBox="0 0 297 307" fill="none" xmlns="http://www.w3.org/2000/svg">
<g filter="url(#filter0_f_3_1616)">
<ellipse cx="118.578" cy="113.273" rx="69.5781" ry="69.2732" fill="#FFC701" fill-opacity="0.5"/>
</g>
<path d="M184.875 115.545C184.875 151.992 155.197 181.547 118.578 181.547C81.9592 181.547 52.2812 151.992 52.2812 115.545C52.2812 79.0967 81.9592 49.5425 118.578 49.5425C155.197 49.5425 184.875 79.0967 184.875 115.545Z" fill="url(#paint0_linear_3_1616)" stroke="url(#paint1_linear_3_1616)" stroke-width="2"/>
<mask id="mask0_3_1616" style="mask-type:alpha" maskUnits="userSpaceOnUse" x="51" y="86" width="135" height="97">
<path d="M185.875 115.544C185.875 152.549 155.745 182.546 118.578 182.546C81.4111 182.546 51.2812 152.549 51.2812 115.544C51.2812 78.5403 76.2783 87.1538 113.445 87.1538C150.612 87.1538 185.875 78.5403 185.875 115.544Z" fill="url(#paint2_linear_3_1616)"/>
</mask>
<g mask="url(#mask0_3_1616)">
<g filter="url(#filter1_f_3_1616)">
<path fill-rule="evenodd" clip-rule="evenodd" d="M221.235 238.192C221.235 265.161 199.276 287.024 172.188 287.024C171.997 287.024 171.807 287.023 171.618 287.021V287.024H-0.616933L-0.614701 287.021C-0.805383 287.024 -0.996324 287.025 -1.18752 287.025C-28.2753 287.025 -50.2344 265.162 -50.2344 238.193C-50.2344 211.224 -28.2753 189.361 -1.18752 189.361C22.1614 189.361 41.6996 205.605 46.6485 227.361L63.2581 206.395L115.157 189.36H171.618V189.364C171.807 189.361 171.997 189.36 172.188 189.36C199.276 189.36 221.235 211.223 221.235 238.192Z" fill="#E18700"/>
</g>
</g>
<g filter="url(#filter2_bd_3_1616)">
<mask id="path-5-inside-1_3_1616" fill="white">
<path fill-rule="evenodd" clip-rule="evenodd" d="M232.141 241.998C232.279 241.999 232.417 242 232.554 242C252.13 242 268 226.2 268 206.71C268 187.22 252.13 171.42 232.554 171.42C232.417 171.42 232.279 171.42 232.141 171.422V171.42H222.985C223.316 169.004 223.487 166.538 223.487 164.033C223.487 134.117 199.129 109.866 169.082 109.866C139.035 109.866 114.677 134.117 114.677 164.033C114.677 166.856 114.894 169.628 115.312 172.334C112.724 171.736 110.028 171.42 107.258 171.42C87.6821 171.42 71.8125 187.22 71.8125 206.71C71.8125 226.2 87.6821 242 107.258 242C107.396 242 107.534 241.999 107.671 241.998L107.67 242H232.141V241.998Z"/>
</mask>
<path fill-rule="evenodd" clip-rule="evenodd" d="M232.141 241.998C232.279 241.999 232.417 242 232.554 242C252.13 242 268 226.2 268 206.71C268 187.22 252.13 171.42 232.554 171.42C232.417 171.42 232.279 171.42 232.141 171.422V171.42H222.985C223.316 169.004 223.487 166.538 223.487 164.033C223.487 134.117 199.129 109.866 169.082 109.866C139.035 109.866 114.677 134.117 114.677 164.033C114.677 166.856 114.894 169.628 115.312 172.334C112.724 171.736 110.028 171.42 107.258 171.42C87.6821 171.42 71.8125 187.22 71.8125 206.71C71.8125 226.2 87.6821 242 107.258 242C107.396 242 107.534 241.999 107.671 241.998L107.67 242H232.141V241.998Z" fill="url(#paint3_linear_3_1616)" shape-rendering="crispEdges"/>
<path d="M232.141 241.998L232.164 239.998C231.63 239.992 231.115 240.2 230.735 240.576C230.355 240.951 230.141 241.464 230.141 241.998H232.141ZM232.141 171.422H230.141C230.141 171.956 230.355 172.468 230.735 172.844C231.115 173.22 231.63 173.428 232.164 173.422L232.141 171.422ZM232.141 171.42H234.141C234.141 170.315 233.246 169.42 232.141 169.42V171.42ZM222.985 171.42L221.004 171.148C220.925 171.721 221.098 172.299 221.478 172.734C221.858 173.17 222.407 173.42 222.985 173.42V171.42ZM115.312 172.334L114.861 174.283C115.508 174.433 116.186 174.252 116.673 173.8C117.159 173.348 117.39 172.685 117.288 172.029L115.312 172.334ZM107.671 241.998L109.239 243.24C109.718 242.635 109.807 241.809 109.467 241.117C109.127 240.425 108.42 239.989 107.649 239.998L107.671 241.998ZM107.67 242L106.102 240.758C105.626 241.36 105.535 242.18 105.869 242.871C106.203 243.562 106.902 244 107.67 244V242ZM232.141 242V244C233.246 244 234.141 243.105 234.141 242H232.141ZM232.119 243.998C232.264 243.999 232.409 244 232.554 244V240C232.424 240 232.294 240 232.164 239.998L232.119 243.998ZM232.554 244C253.227 244 270 227.313 270 206.71H266C266 225.087 251.034 240 232.554 240V244ZM270 206.71C270 186.107 253.227 169.42 232.554 169.42V173.42C251.034 173.42 266 188.332 266 206.71H270ZM232.554 169.42C232.409 169.42 232.264 169.42 232.119 169.422L232.164 173.422C232.294 173.42 232.424 173.42 232.554 173.42V169.42ZM230.141 171.42V171.422H234.141V171.42H230.141ZM222.985 173.42H232.141V169.42H222.985V173.42ZM224.967 171.691C225.31 169.186 225.487 166.629 225.487 164.033H221.487C221.487 166.447 221.322 168.823 221.004 171.148L224.967 171.691ZM225.487 164.033C225.487 133.005 200.225 107.866 169.082 107.866V111.866C198.032 111.866 221.487 135.23 221.487 164.033H225.487ZM169.082 107.866C137.938 107.866 112.677 133.005 112.677 164.033H116.677C116.677 135.23 140.131 111.866 169.082 111.866V107.866ZM112.677 164.033C112.677 166.958 112.902 169.833 113.335 172.64L117.288 172.029C116.886 169.423 116.677 166.753 116.677 164.033H112.677ZM115.763 170.386C113.028 169.753 110.181 169.42 107.258 169.42V173.42C109.876 173.42 112.421 173.718 114.861 174.283L115.763 170.386ZM107.258 169.42C86.5858 169.42 69.8125 186.107 69.8125 206.71H73.8125C73.8125 188.332 88.7783 173.42 107.258 173.42V169.42ZM69.8125 206.71C69.8125 227.313 86.5858 244 107.258 244V240C88.7783 240 73.8125 225.087 73.8125 206.71H69.8125ZM107.258 244C107.404 244 107.549 243.999 107.694 243.998L107.649 239.998C107.519 240 107.389 240 107.258 240V244ZM109.237 243.242L109.239 243.24L106.104 240.756L106.102 240.758L109.237 243.242ZM232.141 240H107.67V244H232.141V240ZM230.141 241.998V242H234.141V241.998H230.141Z" fill="url(#paint4_linear_3_1616)" mask="url(#path-5-inside-1_3_1616)"/>
</g>
<defs>
<filter id="filter0_f_3_1616" x="5" y="0" width="227.156" height="226.546" filterUnits="userSpaceOnUse" color-interpolation-filters="sRGB">
<feFlood flood-opacity="0" result="BackgroundImageFix"/>
<feBlend mode="normal" in="SourceGraphic" in2="BackgroundImageFix" result="shape"/>
<feGaussianBlur stdDeviation="22" result="effect1_foregroundBlur_3_1616"/>
</filter>
<filter id="filter1_f_3_1616" x="-64.2344" y="175.36" width="299.469" height="125.665" filterUnits="userSpaceOnUse" color-interpolation-filters="sRGB">
<feFlood flood-opacity="0" result="BackgroundImageFix"/>
<feBlend mode="normal" in="SourceGraphic" in2="BackgroundImageFix" result="shape"/>
<feGaussianBlur stdDeviation="7" result="effect1_foregroundBlur_3_1616"/>
</filter>
<filter id="filter2_bd_3_1616" x="0.8125" y="74.8662" width="296.188" height="232.134" filterUnits="userSpaceOnUse" color-interpolation-filters="sRGB">
<feFlood flood-opacity="0" result="BackgroundImageFix"/>
<feGaussianBlur in="BackgroundImageFix" stdDeviation="7"/>
<feComposite in2="SourceAlpha" operator="in" result="effect1_backgroundBlur_3_1616"/>
<feColorMatrix in="SourceAlpha" type="matrix" values="0 0 0 0 0 0 0 0 0 0 0 0 0 0 0 0 0 0 127 0" result="hardAlpha"/>
<feOffset dx="-21" dy="15"/>
<feGaussianBlur stdDeviation="25"/>
<feComposite in2="hardAlpha" operator="out"/>
<feColorMatrix type="matrix" values="0 0 0 0 0.113438 0 0 0 0 0.148981 0 0 0 0 0.275 0 0 0 0.25 0"/>
<feBlend mode="normal" in2="effect1_backgroundBlur_3_1616" result="effect2_dropShadow_3_1616"/>
<feBlend mode="normal" in="SourceGraphic" in2="effect2_dropShadow_3_1616" result="shape"/>
</filter>
<linearGradient id="paint0_linear_3_1616" x1="118.578" y1="48.5425" x2="118.578" y2="182.547" gradientUnits="userSpaceOnUse">
<stop stop-color="#FFE600"/>
<stop offset="1" stop-color="#FF7A00"/>
</linearGradient>
<linearGradient id="paint1_linear_3_1616" x1="118.578" y1="48.5425" x2="118.578" y2="182.547" gradientUnits="userSpaceOnUse">
<stop stop-color="white"/>
<stop offset="1" stop-color="white" stop-opacity="0"/>
</linearGradient>
<linearGradient id="paint2_linear_3_1616" x1="118.578" y1="48.5425" x2="118.578" y2="182.546" gradientUnits="userSpaceOnUse">
<stop stop-color="#FFD600"/>
<stop offset="1" stop-color="#FF7A00"/>
</linearGradient>
<linearGradient id="paint3_linear_3_1616" x1="179.031" y1="113.841" x2="179.031" y2="256.93" gradientUnits="userSpaceOnUse">
<stop stop-color="white"/>
<stop offset="1" stop-color="white" stop-opacity="0"/>
</linearGradient>
<linearGradient id="paint4_linear_3_1616" x1="169.906" y1="109.866" x2="169.906" y2="242" gradientUnits="userSpaceOnUse">
<stop stop-color="white"/>
<stop offset="1" stop-color="white" stop-opacity="0"/>
</linearGradient>
</defs>
</svg>
