<svg width="250" height="260" viewBox="0 0 250 260" fill="none" xmlns="http://www.w3.org/2000/svg">
<g filter="url(#filter0_f_3_1616)">
<ellipse cx="107.057" cy="96.8295" rx="53.0572" ry="52.8295" fill="#FFC701" fill-opacity="0.5"/>
</g>
<path d="M157.375 98.5619C157.375 126.226 134.851 148.659 107.057 148.659C79.2637 148.659 56.7397 126.226 56.7397 98.5619C56.7397 70.8978 79.2637 48.4644 107.057 48.4644C134.851 48.4644 157.375 70.8978 157.375 98.5619Z" fill="url(#paint0_linear_3_1616)" stroke="url(#paint1_linear_3_1616)" stroke-width="2"/>
<mask id="mask0_3_1616" style="mask-type:alpha" maskUnits="userSpaceOnUse" x="55" y="76" width="104" height="74">
<path d="M158.375 98.5614C158.375 126.782 135.399 149.659 107.057 149.659C78.7155 149.659 55.7397 126.782 55.7397 98.5614C55.7397 70.341 74.8014 76.9099 103.143 76.9099C131.485 76.9099 158.375 70.341 158.375 98.5614Z" fill="url(#paint2_linear_3_1616)"/>
</mask>
<g mask="url(#mask0_3_1616)">
<g filter="url(#filter1_f_3_1616)">
<path fill-rule="evenodd" clip-rule="evenodd" d="M185.339 192.095C185.339 212.663 168.594 229.336 147.938 229.336C147.793 229.336 147.648 229.335 147.503 229.334V229.336H16.1643L16.1659 229.334C16.0205 229.336 15.8749 229.336 15.7292 229.336C-4.92686 229.336 -21.6719 212.663 -21.6719 192.096C-21.6719 171.529 -4.92686 154.855 15.7292 154.855C33.534 154.855 48.433 167.243 52.2068 183.835L64.8727 167.846L104.448 154.855H147.503V154.857C147.648 154.856 147.793 154.855 147.938 154.855C168.594 154.855 185.339 171.528 185.339 192.095Z" fill="#E18700"/>
</g>
</g>
<g filter="url(#filter2_bd_3_1616)">
<mask id="path-5-inside-1_3_1616" fill="white">
<path fill-rule="evenodd" clip-rule="evenodd" d="M193.656 194.998C193.761 194.999 193.866 195 193.971 195C208.899 195 221 182.95 221 168.087C221 153.223 208.899 141.173 193.971 141.173C193.866 141.173 193.761 141.174 193.656 141.175V141.173H186.674C186.926 139.331 187.056 137.451 187.056 135.54C187.056 112.726 168.482 94.231 145.569 94.231C122.657 94.231 104.082 112.726 104.082 135.54C104.082 137.693 104.248 139.807 104.567 141.871C102.594 141.414 100.538 141.173 98.4253 141.173C83.4974 141.173 71.396 153.223 71.396 168.087C71.396 182.95 83.4974 195 98.4253 195C98.5305 195 98.6356 194.999 98.7405 194.998L98.7391 195H193.656V194.998Z"/>
</mask>
<path fill-rule="evenodd" clip-rule="evenodd" d="M193.656 194.998C193.761 194.999 193.866 195 193.971 195C208.899 195 221 182.95 221 168.087C221 153.223 208.899 141.173 193.971 141.173C193.866 141.173 193.761 141.174 193.656 141.175V141.173H186.674C186.926 139.331 187.056 137.451 187.056 135.54C187.056 112.726 168.482 94.231 145.569 94.231C122.657 94.231 104.082 112.726 104.082 135.54C104.082 137.693 104.248 139.807 104.567 141.871C102.594 141.414 100.538 141.173 98.4253 141.173C83.4974 141.173 71.396 153.223 71.396 168.087C71.396 182.95 83.4974 195 98.4253 195C98.5305 195 98.6356 194.999 98.7405 194.998L98.7391 195H193.656V194.998Z" fill="url(#paint3_linear_3_1616)" shape-rendering="crispEdges"/>
<path d="M193.656 194.998L193.679 192.998C193.144 192.992 192.63 193.2 192.25 193.576C191.87 193.952 191.656 194.464 191.656 194.998H193.656ZM193.656 141.175H191.656C191.656 141.709 191.87 142.221 192.25 142.597C192.63 142.973 193.144 143.181 193.679 143.175L193.656 141.175ZM193.656 141.173H195.656C195.656 140.069 194.76 139.173 193.656 139.173V141.173ZM186.674 141.173L184.692 140.902C184.614 141.474 184.787 142.053 185.167 142.488C185.546 142.923 186.096 143.173 186.674 143.173V141.173ZM104.567 141.871L104.116 143.819C104.763 143.969 105.441 143.788 105.928 143.336C106.414 142.885 106.645 142.221 106.543 141.566L104.567 141.871ZM98.7405 194.998L100.309 196.239C100.787 195.635 100.876 194.809 100.536 194.117C100.196 193.425 99.4888 192.989 98.7178 192.998L98.7405 194.998ZM98.7391 195L97.1708 193.759C96.6949 194.36 96.6047 195.181 96.9387 195.871C97.2728 196.561 97.9721 197 98.7391 197V195ZM193.656 195V197C194.76 197 195.656 196.104 195.656 195H193.656ZM193.633 196.998C193.746 196.999 193.858 197 193.971 197V193C193.873 193 193.776 192.999 193.679 192.998L193.633 196.998ZM193.971 197C209.995 197 223 184.063 223 168.087H219C219 181.838 207.802 193 193.971 193V197ZM223 168.087C223 152.11 209.995 139.173 193.971 139.173V143.173C207.802 143.173 219 154.335 219 168.087H223ZM193.971 139.173C193.858 139.173 193.746 139.174 193.633 139.175L193.679 143.175C193.776 143.174 193.873 143.173 193.971 143.173V139.173ZM191.656 141.173V141.175H195.656V141.173H191.656ZM186.674 143.173H193.656V139.173H186.674V143.173ZM188.655 141.445C188.92 139.513 189.056 137.542 189.056 135.54H185.056C185.056 137.36 184.932 139.15 184.692 140.902L188.655 141.445ZM189.056 135.54C189.056 111.613 169.578 92.231 145.569 92.231V96.231C167.385 96.231 185.056 113.838 185.056 135.54H189.056ZM145.569 92.231C121.56 92.231 102.082 111.613 102.082 135.54H106.082C106.082 113.838 123.753 96.231 145.569 96.231V92.231ZM102.082 135.54C102.082 137.795 102.256 140.012 102.59 142.176L106.543 141.566C106.24 139.602 106.082 137.59 106.082 135.54H102.082ZM105.017 139.922C102.898 139.432 100.691 139.173 98.4253 139.173V143.173C100.385 143.173 102.29 143.397 104.116 143.819L105.017 139.922ZM98.4253 139.173C82.401 139.173 69.396 152.11 69.396 168.087H73.396C73.396 154.335 84.5939 143.173 98.4253 143.173V139.173ZM69.396 168.087C69.396 184.063 82.401 197 98.4253 197V193C84.5939 193 73.396 181.838 73.396 168.087H69.396ZM98.4253 197C98.5382 197 98.6508 196.999 98.7632 196.998L98.7178 192.998C98.6204 192.999 98.5229 193 98.4253 193V197ZM100.307 196.241L100.309 196.239L97.1723 193.757L97.1708 193.759L100.307 196.241ZM193.656 193H98.7391V197H193.656V193ZM191.656 194.998V195H195.656V194.998H191.656Z" fill="url(#paint4_linear_3_1616)" mask="url(#path-5-inside-1_3_1616)"/>
</g>
<defs>
<filter id="filter0_f_3_1616" x="10" y="0" width="194.114" height="193.659" filterUnits="userSpaceOnUse" color-interpolation-filters="sRGB">
<feFlood flood-opacity="0" result="BackgroundImageFix"/>
<feBlend mode="normal" in="SourceGraphic" in2="BackgroundImageFix" result="shape"/>
<feGaussianBlur stdDeviation="22" result="effect1_foregroundBlur_3_1616"/>
</filter>
<filter id="filter1_f_3_1616" x="-35.6719" y="140.855" width="235.011" height="102.481" filterUnits="userSpaceOnUse" color-interpolation-filters="sRGB">
<feFlood flood-opacity="0" result="BackgroundImageFix"/>
<feBlend mode="normal" in="SourceGraphic" in2="BackgroundImageFix" result="shape"/>
<feGaussianBlur stdDeviation="7" result="effect1_foregroundBlur_3_1616"/>
</filter>
<filter id="filter2_bd_3_1616" x="0.395996" y="59.231" width="249.604" height="200.769" filterUnits="userSpaceOnUse" color-interpolation-filters="sRGB">
<feFlood flood-opacity="0" result="BackgroundImageFix"/>
<feGaussianBlur in="BackgroundImageFix" stdDeviation="7"/>
<feComposite in2="SourceAlpha" operator="in" result="effect1_backgroundBlur_3_1616"/>
<feColorMatrix in="SourceAlpha" type="matrix" values="0 0 0 0 0 0 0 0 0 0 0 0 0 0 0 0 0 0 127 0" result="hardAlpha"/>
<feOffset dx="-21" dy="15"/>
<feGaussianBlur stdDeviation="25"/>
<feComposite in2="hardAlpha" operator="out"/>
<feColorMatrix type="matrix" values="0 0 0 0 0.113438 0 0 0 0 0.148981 0 0 0 0 0.275 0 0 0 0.25 0"/>
<feBlend mode="normal" in2="effect1_backgroundBlur_3_1616" result="effect2_dropShadow_3_1616"/>
<feBlend mode="normal" in="SourceGraphic" in2="effect2_dropShadow_3_1616" result="shape"/>
</filter>
<linearGradient id="paint0_linear_3_1616" x1="107.057" y1="47.4644" x2="107.057" y2="149.659" gradientUnits="userSpaceOnUse">
<stop stop-color="#FFE600"/>
<stop offset="1" stop-color="#FF7A00"/>
</linearGradient>
<linearGradient id="paint1_linear_3_1616" x1="107.057" y1="47.4644" x2="107.057" y2="149.659" gradientUnits="userSpaceOnUse">
<stop stop-color="white"/>
<stop offset="1" stop-color="white" stop-opacity="0"/>
</linearGradient>
<linearGradient id="paint2_linear_3_1616" x1="107.057" y1="47.4639" x2="107.057" y2="149.659" gradientUnits="userSpaceOnUse">
<stop stop-color="#FFD600"/>
<stop offset="1" stop-color="#FF7A00"/>
</linearGradient>
<linearGradient id="paint3_linear_3_1616" x1="153.156" y1="97.2622" x2="153.156" y2="206.386" gradientUnits="userSpaceOnUse">
<stop stop-color="white"/>
<stop offset="1" stop-color="white" stop-opacity="0"/>
</linearGradient>
<linearGradient id="paint4_linear_3_1616" x1="146.198" y1="94.231" x2="146.198" y2="195" gradientUnits="userSpaceOnUse">
<stop stop-color="white"/>
<stop offset="1" stop-color="white" stop-opacity="0"/>
</linearGradient>
</defs>
</svg>
